#!OML:ASF F:\VICON\USERDATA\INSTALL\rory3\rory3.ASF
:FULLY-SPECIFIED
:DEGREES
2326
root -1.51095 17.8034 14.398 542.119 -100.188 537.543
lowerback 9.97832 1.67619 2.2764
upperback 0.458641 2.52133 1.19047
thorax -5.07309 1.19116 -0.394318
lowerneck -17.4115 -4.97275 -10.5926
upperneck 30.3794 -7.08245 7.89641
head 13.9271 -3.46619 3.71957
rclavicle 1.81888e-014 2.78299e-015
rhumerus -29.2025 -3.52147 -84.3779
rradius 41.2933
rwrist 0.784134
rhand -15.9357 10.4296
rfingers 7.12502
rthumb 10.2622 -19.3
lclavicle 1.81888e-014 2.78299e-015
lhumerus -36.4413 1.43451 86.1028
lradius 29.3316
lwrist -8.12834
lhand -16.9788 23.557
lfingers 7.12502
lthumb 9.25583 53.3339
rfemur 0.888195 -1.17063 28.9118
rtibia 22.8782
rfoot -18.1949 -3.63326
rtoes 15.8344
lfemur -21.8971 -6.05983 -13.8682
ltibia 32.9144
lfoot -6.00951 0.915764
ltoes -20.7333
2327
root -1.62567 17.7972 14.4392 542.829 -99.7716 536.925
lowerback 9.81758 1.72635 2.33701
upperback 0.427951 2.59126 1.19355
thorax -5.01117 1.22534 -0.429876
lowerneck -17.5642 -5.01089 -10.5772
upperneck 30.5815 -7.12571 7.81995
head 14.0503 -3.49398 3.68084
rclavicle 1.35174e-014 1.19271e-015
rhumerus -29.1178 -3.448 -84.4708
rradius 41.3819
rwrist 0.767028
rhand -16.021 10.5165
rfingers 7.12502
rthumb 10.1799 -19.2172
lclavicle 1.35174e-014 1.19271e-015
lhumerus -36.4249 1.4586 86.0566
lradius 29.2616
lwrist -8.29465
lhand -17.1832 23.7228
lfingers 7.12502
lthumb 9.05857 53.5083
rfemur 1.39318 -1.0472 28.9207
rtibia 22.5689
rfoot -18.235 -3.63851
rtoes 13.973
lfemur -22.0267 -6.06488 -13.6867
ltibia 30.8408
lfoot -5.8089 0.949503
ltoes -19.5634
2328
root -1.73788 17.7904 14.4831 543.551 -99.3744 536.201
lowerback 9.74199 1.77831 2.40591
upperback 0.45375 2.6652 1.2151
thorax -4.93808 1.26137 -0.452938
lowerneck -17.6462 -5.05944 -10.6526
upperneck 30.592 -7.22447 7.98491
head 14.0965 -3.52275 3.74305
rclavicle 9.39258e-015 0
rhumerus -29.0647 -3.53667 -84.5162
rradius 41.5648
rwrist 0.635253
rhand -16.0821 10.4563
rfingers 7.12502
rthumb 10.121 -19.2803
lclavicle 9.39258e-015 0
lhumerus -36.3373 1.54176 86.027
lradius 29.1743
lwrist -8.33489
lhand -15.9554 23.5054
lfingers 7.12502
lthumb 10.2432 53.236
rfemur 1.97454 -0.920733 28.9106
rtibia 22.3096
rfoot -18.3304 -3.49651
rtoes 12.8503
lfemur -22.0291 -6.19137 -13.4906
ltibia 28.7204
lfoot -5.51385 0.938279
ltoes -18.4217
2329
root -1.85006 17.7776 14.5269 543.928 -99.0385 535.833
lowerback 9.66719 1.81511 2.33961
upperback 0.499549 2.70524 1.27789
thorax -4.85346 1.28429 -0.352361
lowerneck -17.7548 -5.13579 -10.6751
upperneck 30.5032 -7.31064 7.99789
head 14.0944 -3.55534 3.73261
rclavicle -2.01269e-014 -5.96354e-015
rhumerus -29.0084 -3.50252 -84.4545
rradius 41.7132
rwrist 0.505381
rhand -16.1738 10.384
rfingers 7.12502
rthumb 10.0325 -19.3569
lclavicle -2.01269e-014 -5.96354e-015
lhumerus -36.2062 1.81409 86.0422
lradius 29.1195
lwrist -8.49073
lhand -13.5407 23.259
lfingers 7.12502
lthumb 12.5719 52.8607
rfemur 2.5736 -0.82879 28.8281
rtibia 21.9969
rfoot -18.3808 -3.16056
rtoes 13.6604
lfemur -22.0017 -6.10425 -13.4203
ltibia 26.5692
lfoot -5.40704 0.655191
ltoes -19.3807
2330
root -1.96268 17.7661 14.5716 544.045 -98.7826 535.744
lowerback 9.60146 1.81736 2.33144
upperback 0.513939 2.70407 1.26403
thorax -4.80129 1.2846 -0.359398
lowerneck -17.7995 -5.15666 -10.5903
upperneck 30.4144 -7.34121 7.96027
head 14.0631 -3.56037 3.69368
rclavicle -5.46658e-015 -1.19271e-015
rhumerus -28.9793 -3.41172 -84.4429
rradius 41.766
rwrist 0.505975
rhand -16.0221 10.2914
rfingers 7.12502
rthumb 10.1789 -19.4424
lclavicle -5.46658e-015 -1.19271e-015
lhumerus -36.1131 1.95405 85.9816
lradius 29.1094
lwrist -8.61277
lhand -12.5192 22.9907
lfingers 7.12502
lthumb 13.5567 52.5293
rfemur 3.16837 -0.623463 28.735
rtibia 21.6587
rfoot -18.4324 -2.94042
rtoes 15.2384
lfemur -21.99 -6.06196 -13.4066
ltibia 24.3986
lfoot -5.32438 0.312681
ltoes -19.146
2331
root -2.07705 17.7593 14.6183 544.546 -98.4887 535.322
lowerback 9.5667 1.78422 2.37844
upperback 0.413056 2.66759 1.24883
thorax -4.88529 1.26443 -0.397429
lowerneck -17.805 -5.08553 -10.4708
upperneck 30.4755 -7.27546 7.92722
head 14.0751 -3.52538 3.67275
rclavicle -8.15017e-015 8.74653e-015
rhumerus -29.1057 -3.31655 -84.5158
rradius 41.7139
rwrist 0.574765
rhand -15.9065 10.2825
rfingers 7.12502
rthumb 10.2904 -19.4458
lclavicle -8.15017e-015 8.74653e-015
lhumerus -36.2149 1.96115 85.8052
lradius 29.0956
lwrist -8.99437
lhand -12.6642 22.6698
lfingers 7.12502
lthumb 13.4169 52.2178
rfemur 3.71486 -0.235142 28.7232
rtibia 21.3264
rfoot -18.5593 -3.01451
rtoes 16.3132
lfemur -22.0042 -6.15831 -13.3105
ltibia 22.2142
lfoot -5.35406 0.0193706
ltoes -18.7293
2332
root -2.1949 17.7536 14.663 545.194 -98.1093 534.738
lowerback 9.59769 1.77723 2.36013
upperback 0.233902 2.66542 1.26119
thorax -5.09187 1.26115 -0.378686
lowerneck -17.6233 -4.97904 -10.4011
upperneck 30.5424 -7.19426 7.96777
head 14.0521 -3.48727 3.69577
rclavicle -3.11098e-014 -3.22031e-014
rhumerus -29.3691 -3.35639 -84.5498
rradius 41.5907
rwrist 0.808995
rhand -15.7851 10.3899
rfingers 7.12502
rthumb 10.4075 -19.3325
lclavicle -3.11098e-014 -3.22031e-014
lhumerus -36.4512 2.33013 85.521
lradius 29.0532
lwrist -9.72587
lhand -13.7922 22.7674
lfingers 7.12502
lthumb 12.3295 52.3838
rfemur 4.28549 0.0253823 28.6923
rtibia 20.9743
rfoot -18.5812 -3.02795
rtoes 15.9977
lfemur -21.9223 -6.36016 -13.1466
ltibia 20.0445
lfoot -5.61144 -0.269153
ltoes -20.8376
2333
root -2.31551 17.7451 14.7088 545.794 -97.679 534.119
lowerback 9.58622 1.81542 2.3453
upperback 0.177023 2.71673 1.2643
thorax -5.14484 1.28615 -0.374826
lowerneck -17.4988 -4.93674 -10.4367
upperneck 30.5467 -7.20421 8.14381
head 14.0372 -3.47949 3.77393
rclavicle 2.96189e-014 1.59028e-015
rhumerus -29.485 -3.44526 -84.5678
rradius 41.4549
rwrist 0.947719
rhand -15.738 10.3929
rfingers 7.12502
rthumb 10.4529 -19.3272
lclavicle 2.96189e-014 1.59028e-015
lhumerus -36.539 2.43674 85.5574
lradius 29.0708
lwrist -9.07377
lhand -15.1548 23.1798
lfingers 7.12502
lthumb 11.0154 52.8708
rfemur 4.9391 0.125878 28.6009
rtibia 20.6146
rfoot -18.5143 -2.87428
rtoes 14.4601
lfemur -21.7157 -6.50471 -13.0266
ltibia 17.9468
lfoot -5.75944 -0.457962
ltoes -22.924
2334
root -2.43606 17.7338 14.7579 545.811 -97.328 534.04
lowerback 9.55023 1.86223 2.31042
upperback 0.206488 2.7727 1.26127
thorax -5.09404 1.31533 -0.364144
lowerneck -17.4298 -4.9635 -10.4871
upperneck 30.4462 -7.25351 8.22284
head 13.9903 -3.49722 3.80403
rclavicle -1.74931e-014 1.15295e-014
rhumerus -29.5467 -3.51401 -84.4763
rradius 41.3304
rwrist 1.0849
rhand -15.7149 10.4105
rfingers 7.12502
rthumb 10.4752 -19.3085
lclavicle -1.74931e-014 1.15295e-014
lhumerus -36.5201 2.45167 85.6075
lradius 29.1315
lwrist -8.86009
lhand -14.5744 23.1492
lfingers 7.12502
lthumb 11.5752 52.8096
rfemur 5.63933 0.451809 28.4769
rtibia 20.2907
rfoot -18.5256 -2.86892
rtoes 14.1464
lfemur -21.4863 -6.59711 -13.0298
ltibia 15.9541
lfoot -5.68329 -0.799209
ltoes -23.0748
2335
root -2.55423 17.7227 14.8062 546.369 -97.0261 533.498
lowerback 9.48778 1.88004 2.33985
upperback 0.186719 2.79949 1.28714
thorax -5.07909 1.3283 -0.355412
lowerneck -17.4557 -4.95965 -10.4891
upperneck 30.4725 -7.2367 8.18697
head 14.0038 -3.49528 3.79292
rclavicle 1.84373e-014 -1.47101e-014
rhumerus -29.6607 -3.37263 -84.3913
rradius 41.2268
rwrist 1.07305
rhand -15.7535 10.3507
rfingers 7.12502
rthumb 10.438 -19.3702
lclavicle 1.84373e-014 -1.47101e-014
lhumerus -36.492 2.93884 85.3007
lradius 29.1436
lwrist -10.242
lhand -13.5645 23.2733
lfingers 7.12502
lthumb 12.549 52.8765
rfemur 6.23475 0.598203 28.371
rtibia 19.9715
rfoot -18.5672 -2.71531
rtoes 14.512
lfemur -21.3971 -6.99909 -12.8378
ltibia 14.1759
lfoot -5.64951 -0.928285
ltoes -21.0469
2336
root -2.67472 17.7112 14.8543 547.925 -96.6884 531.993
lowerback 9.35552 1.87402 2.46729
upperback 0.165572 2.80305 1.32358
thorax -5.02271 1.32808 -0.384786
lowerneck -17.5062 -4.91869 -10.4702
upperneck 30.5804 -7.19073 8.17958
head 14.0549 -3.4765 3.7972
rclavicle -8.89561e-015 1.35174e-014
rhumerus -29.6836 -3.3539 -84.397
rradius 40.9565
rwrist 1.13411
rhand -15.9279 10.2935
rfingers 7.12502
rthumb 10.2697 -19.4358
lclavicle -8.89561e-015 1.35174e-014
lhumerus -36.4897 3.18063 85.2228
lradius 29.1624
lwrist -10.3475
lhand -13.851 23.3087
lfingers 7.12502
lthumb 12.2728 52.9286
rfemur 6.77836 0.563416 28.3283
rtibia 19.6568
rfoot -18.5183 -2.48043
rtoes 13.7644
lfemur -21.3938 -7.20937 -12.5937
ltibia 12.6464
lfoot -5.72919 -0.954633
ltoes -20.4381
